<?xml version="1.0" standalone="no"?>
<!DOCTYPE svg PUBLIC "-//W3C//DTD SVG 20010904//EN"
 "http://www.w3.org/TR/2001/REC-SVG-20010904/DTD/svg10.dtd">
<svg version="1.0" xmlns="http://www.w3.org/2000/svg"
 width="27.000000pt" height="38.000000pt" viewBox="0 0 27.000000 38.000000"
 preserveAspectRatio="xMidYMid meet">

<g transform="translate(0.000000,38.000000) scale(0.100000,-0.100000)"
fill="#000000" stroke="none">
<path d="M80 373 c0 -16 40 -63 54 -63 7 0 25 14 41 30 32 34 23 40 -15 10
-25 -19 -25 -19 -52 7 -16 15 -28 22 -28 16z"/>
<path d="M40 356 c0 -13 83 -106 94 -106 7 0 34 23 61 50 58 59 47 67 -16 11
l-44 -39 -47 46 c-27 25 -48 43 -48 38z"/>
<path d="M21 303 c7 -10 33 -40 58 -66 l46 -48 -65 -59 c-37 -34 -58 -59 -49
-60 8 0 28 14 45 31 16 17 41 39 56 50 l26 19 55 -57 c70 -73 83 -65 17 9 -28
31 -50 61 -50 66 0 6 25 33 56 61 75 69 62 78 -16 10 l-61 -53 -57 57 c-55 55
-89 76 -61 40z"/>
<path d="M75 80 c-59 -60 -51 -65 15 -10 l48 40 42 -46 c23 -25 44 -43 47 -40
7 7 -79 106 -92 106 -6 0 -33 -22 -60 -50z"/>
<path d="M95 40 c-32 -34 -21 -40 17 -10 l25 19 23 -24 c13 -14 26 -23 28 -20
6 6 -48 65 -58 65 -3 0 -19 -13 -35 -30z"/>
</g>
</svg>
