<?xml version="1.0" standalone="no"?>
<!DOCTYPE svg PUBLIC "-//W3C//DTD SVG 20010904//EN"
 "http://www.w3.org/TR/2001/REC-SVG-20010904/DTD/svg10.dtd">
<svg version="1.0" xmlns="http://www.w3.org/2000/svg"
 width="811.000000pt" height="695.000000pt" viewBox="0 0 811.000000 695.000000"
 preserveAspectRatio="xMidYMid meet">

<g transform="translate(0.000000,695.000000) scale(0.100000,-0.100000)"
fill="#000000" stroke="none">
<path d="M3527 5343 c-12 -12 -7 -171 23 -724 31 -576 39 -658 64 -707 28 -53
51 -56 446 -48 623 12 992 29 1020 46 14 9 6 124 -10 150 -8 13 -54 15 -302
13 -161 -1 -430 -7 -598 -12 -168 -5 -320 -7 -338 -4 -23 4 -36 13 -43 30 -14
36 -26 203 -54 704 -14 250 -29 475 -33 500 -7 38 -11 45 -37 50 -41 9 -130
10 -138 2z"/>
<path d="M3066 5271 c-4 -6 -3 -107 3 -224 34 -673 55 -1456 40 -1472 -11 -10
-377 -24 -924 -35 -686 -13 -765 -19 -779 -55 -10 -28 11 -109 34 -127 27 -22
141 -23 940 -7 600 12 745 8 760 -21 5 -9 18 -188 30 -396 50 -931 72 -1250
87 -1265 4 -4 46 -11 92 -15 l83 -7 -6 109 c-6 98 -30 591 -56 1149 -12 261
-13 452 -2 459 12 7 536 24 1152 36 289 6 533 13 543 16 12 4 17 16 17 39 0
51 -20 133 -33 138 -7 2 -356 0 -777 -5 -421 -5 -802 -7 -847 -3 l-82 7 -5 36
c-3 21 -20 305 -36 632 -39 760 -54 998 -64 1007 -13 13 -163 16 -170 4z"/>
<path d="M3965 5230 c-3 -5 -1 -83 4 -172 6 -90 13 -219 16 -288 10 -208 24
-349 39 -383 7 -18 24 -42 38 -55 l25 -22 349 11 c192 6 383 14 424 17 l75 7
0 55 c-1 107 -2 107 -107 114 -51 3 -213 8 -360 12 l-268 6 -4 32 c-3 17 -14
165 -26 328 -11 164 -25 309 -30 323 -9 24 -13 25 -89 25 -44 0 -83 -4 -86
-10z"/>
<path d="M2170 4880 c-12 -17 -55 -108 -95 -202 -40 -93 -78 -175 -84 -181
-16 -16 -40 11 -102 109 -134 212 -169 264 -179 264 -7 0 -9 -9 -5 -22 8 -28
116 -248 185 -377 27 -52 50 -106 50 -120 0 -13 -15 -94 -34 -180 -70 -314
-85 -414 -68 -439 15 -22 88 -27 117 -8 50 33 101 170 205 556 86 320 121 499
108 546 -10 36 -48 84 -67 84 -5 0 -19 -14 -31 -30z"/>
<path d="M2545 4865 c-33 -13 -70 -24 -83 -24 -39 -1 -47 -37 -34 -163 6 -62
19 -194 27 -293 32 -370 44 -491 51 -508 17 -45 115 0 149 68 16 34 20 67 23
226 l4 186 61 29 c75 36 152 95 178 137 53 88 -12 280 -113 337 -63 35 -181
37 -263 5z m224 -18 c102 -68 133 -234 58 -317 -44 -49 -120 -110 -137 -110
-20 0 -40 43 -65 139 -8 33 -29 100 -46 147 -17 48 -28 96 -25 108 3 11 20 31
38 44 44 31 120 27 177 -11z"/>
<path d="M379 4774 c-60 -18 -141 -90 -170 -152 -22 -45 -24 -59 -27 -332 l-4
-285 41 -62 c85 -126 178 -183 300 -183 66 0 124 24 166 69 l30 32 5 159 c5
133 9 162 23 178 13 14 15 22 7 27 -15 9 -200 -4 -200 -15 0 -4 23 -10 50 -13
28 -3 56 -9 62 -13 7 -5 9 -40 5 -115 -11 -181 -56 -245 -146 -204 -82 36
-116 101 -135 251 -32 252 -28 534 9 590 33 50 98 16 162 -83 37 -58 57 -69
47 -25 -21 83 -67 152 -119 176 -39 19 -46 19 -106 0z"/>
<path d="M930 4611 c0 -96 22 -401 41 -570 11 -95 15 -108 43 -139 38 -40 96
-53 142 -29 32 17 139 119 196 187 44 53 49 50 74 -55 23 -95 43 -144 64 -155
23 -12 80 24 99 64 30 64 22 726 -9 746 -20 13 -87 13 -110 0 -25 -13 -47 -92
-54 -196 -7 -95 -29 -162 -87 -274 -100 -192 -138 -207 -154 -60 -35 326 -57
487 -71 507 -25 39 -74 63 -126 63 l-48 0 0 -89z"/>
<path d="M5882 3113 c-76 -27 -105 -106 -78 -212 18 -69 47 -131 153 -318 94
-168 203 -393 210 -436 12 -79 -78 -108 -164 -54 -48 30 -65 54 -123 165 -47
91 -66 105 -56 41 16 -100 118 -231 201 -259 42 -14 153 -9 219 11 22 6 52 24
68 39 36 37 38 97 4 178 -31 72 -168 326 -315 582 -61 107 -110 201 -109 209
5 24 48 41 104 41 61 0 107 -27 143 -83 13 -20 26 -35 29 -32 8 8 -47 93 -79
119 -26 23 -39 26 -97 25 -37 0 -86 -7 -110 -16z"/>
<path d="M5475 3084 c-56 -7 -180 -26 -202 -31 -25 -6 -32 -23 -9 -23 35 0 57
-35 71 -115 22 -128 55 -495 62 -688 5 -156 4 -179 -10 -195 -10 -10 -14 -22
-10 -25 9 -9 156 -8 213 2 45 8 45 8 18 19 l-28 12 0 142 c0 226 -19 530 -40
669 -26 165 -25 177 5 201 45 35 28 43 -70 32z"/>
<path d="M2030 3009 c-277 -10 -601 -29 -612 -35 -12 -7 -10 -96 3 -133 7 -21
20 -33 37 -38 25 -6 725 9 1103 24 l156 6 6 -64 c4 -35 16 -237 27 -449 21
-424 38 -688 45 -736 4 -21 14 -35 31 -42 28 -14 140 -16 148 -4 10 16 -49
1266 -64 1356 -7 46 -17 67 -42 93 l-32 33 -295 -2 c-163 0 -393 -5 -511 -9z"/>
<path d="M7077 2982 c-24 -26 -58 -109 -111 -267 -25 -77 -51 -147 -56 -155
-14 -22 -37 5 -115 140 -94 161 -130 213 -176 254 -48 44 -88 48 -126 10 l-26
-26 7 -181 c10 -262 34 -586 47 -630 11 -42 41 -77 64 -77 29 0 71 28 84 56
14 32 28 193 37 437 3 92 9 167 13 167 3 0 37 -47 74 -104 76 -116 109 -151
131 -143 22 9 53 62 77 135 38 115 47 88 65 -193 19 -307 32 -463 39 -475 8
-12 165 -13 183 -1 26 16 34 163 22 416 -15 351 -34 524 -62 583 -16 33 -83
72 -124 72 -17 0 -38 -8 -47 -18z"/>
<path d="M7624 2982 c-99 -47 -154 -162 -161 -342 -6 -136 6 -210 47 -298 80
-172 222 -243 354 -178 99 48 140 121 156 278 24 231 -44 483 -144 536 -49 25
-200 28 -252 4z m241 -97 c11 -7 40 -52 64 -101 l44 -89 -1 -105 c-3 -208 -57
-310 -165 -310 -41 0 -94 34 -118 75 -69 118 -63 391 11 494 42 58 108 72 165
36z"/>
<path d="M4476 2924 c-16 -16 -17 -33 -11 -193 17 -460 44 -768 68 -798 10
-13 93 -18 121 -7 13 5 16 23 16 93 1 119 18 333 28 343 5 5 21 -10 37 -34 48
-73 201 -270 260 -335 66 -74 91 -81 82 -27 -7 41 -49 115 -189 331 -55 84
-106 169 -114 189 -15 36 -15 38 17 82 41 57 50 131 24 183 -25 50 -74 97
-114 110 -20 7 -57 25 -84 42 -61 37 -117 46 -141 21z m251 -116 c39 -40 53
-76 53 -133 0 -35 -6 -52 -29 -77 -25 -27 -33 -31 -48 -22 -28 17 -42 71 -42
165 -1 113 11 124 66 67z"/>
<path d="M3646 2895 c-20 -20 -20 -34 -1 -221 8 -82 19 -214 25 -294 6 -80 17
-194 25 -254 16 -122 29 -144 99 -177 35 -15 43 -16 65 -4 34 17 82 69 165
178 37 48 73 87 80 87 14 0 31 -49 41 -120 10 -73 35 -139 56 -151 28 -14 68
8 93 51 20 33 21 49 20 340 -2 307 -15 502 -35 527 -19 22 -62 15 -101 -17
-35 -29 -37 -34 -43 -108 -10 -130 -26 -213 -56 -304 -27 -84 -102 -242 -133
-283 -13 -18 -16 -19 -31 -4 -12 11 -22 83 -45 305 -42 416 -37 396 -113 432
-68 32 -92 36 -111 17z"/>
<path d="M1930 2568 c-157 -4 -301 -12 -320 -16 l-35 -8 0 -67 c0 -109 -24
-103 380 -98 l345 3 9 -23 c5 -13 18 -169 30 -346 12 -178 24 -330 27 -338 4
-8 17 -18 31 -21 29 -8 130 0 140 10 10 10 6 156 -13 510 -16 290 -25 349 -61
388 -18 21 -45 21 -533 6z"/>
</g>
</svg>
